<?xml version="1.0" encoding="utf-8" standalone="no"?>
<!DOCTYPE svg PUBLIC "-//W3C//DTD SVG 1.1//EN"
  "http://www.w3.org/Graphics/SVG/1.1/DTD/svg11.dtd">
<!-- Created with matplotlib (https://matplotlib.org/) -->
<svg height="288pt" version="1.1" viewBox="0 0 432 288" width="432pt" xmlns="http://www.w3.org/2000/svg" xmlns:xlink="http://www.w3.org/1999/xlink">
 <defs>
  <style type="text/css">
*{stroke-linecap:butt;stroke-linejoin:round;}
  </style>
 </defs>
 <g id="figure_1">
  <g id="patch_1">
   <path d="M 0 288 
L 432 288 
L 432 0 
L 0 0 
z
" style="fill:#ffffff;"/>
  </g>
  <g id="axes_1">
   <g id="patch_2">
    <path d="M 54 252 
L 388.8 252 
L 388.8 34.56 
L 54 34.56 
z
" style="fill:#ffffff;"/>
   </g>
   <g id="matplotlib.axis_1">
    <g id="xtick_1">
     <g id="line2d_1">
      <defs>
       <path d="M 0 0 
L 0 3.5 
" id="m792b081be6" style="stroke:#000000;stroke-width:0.8;"/>
      </defs>
      <g>
       <use style="stroke:#000000;stroke-width:0.8;" x="54" xlink:href="#m792b081be6" y="252"/>
      </g>
     </g>
     <g id="text_1">
      <!-- DP01108 -->
      <defs>
       <path d="M 19.671875 64.796875 
L 19.671875 8.109375 
L 31.59375 8.109375 
Q 46.6875 8.109375 53.6875 14.9375 
Q 60.6875 21.78125 60.6875 36.53125 
Q 60.6875 51.171875 53.6875 57.984375 
Q 46.6875 64.796875 31.59375 64.796875 
z
M 9.8125 72.90625 
L 30.078125 72.90625 
Q 51.265625 72.90625 61.171875 64.09375 
Q 71.09375 55.28125 71.09375 36.53125 
Q 71.09375 17.671875 61.125 8.828125 
Q 51.171875 0 30.078125 0 
L 9.8125 0 
z
" id="DejaVuSans-68"/>
       <path d="M 19.671875 64.796875 
L 19.671875 37.40625 
L 32.078125 37.40625 
Q 38.96875 37.40625 42.71875 40.96875 
Q 46.484375 44.53125 46.484375 51.125 
Q 46.484375 57.671875 42.71875 61.234375 
Q 38.96875 64.796875 32.078125 64.796875 
z
M 9.8125 72.90625 
L 32.078125 72.90625 
Q 44.34375 72.90625 50.609375 67.359375 
Q 56.890625 61.8125 56.890625 51.125 
Q 56.890625 40.328125 50.609375 34.8125 
Q 44.34375 29.296875 32.078125 29.296875 
L 19.671875 29.296875 
L 19.671875 0 
L 9.8125 0 
z
" id="DejaVuSans-80"/>
       <path d="M 31.78125 66.40625 
Q 24.171875 66.40625 20.328125 58.90625 
Q 16.5 51.421875 16.5 36.375 
Q 16.5 21.390625 20.328125 13.890625 
Q 24.171875 6.390625 31.78125 6.390625 
Q 39.453125 6.390625 43.28125 13.890625 
Q 47.125 21.390625 47.125 36.375 
Q 47.125 51.421875 43.28125 58.90625 
Q 39.453125 66.40625 31.78125 66.40625 
z
M 31.78125 74.21875 
Q 44.046875 74.21875 50.515625 64.515625 
Q 56.984375 54.828125 56.984375 36.375 
Q 56.984375 17.96875 50.515625 8.265625 
Q 44.046875 -1.421875 31.78125 -1.421875 
Q 19.53125 -1.421875 13.0625 8.265625 
Q 6.59375 17.96875 6.59375 36.375 
Q 6.59375 54.828125 13.0625 64.515625 
Q 19.53125 74.21875 31.78125 74.21875 
z
" id="DejaVuSans-48"/>
       <path d="M 12.40625 8.296875 
L 28.515625 8.296875 
L 28.515625 63.921875 
L 10.984375 60.40625 
L 10.984375 69.390625 
L 28.421875 72.90625 
L 38.28125 72.90625 
L 38.28125 8.296875 
L 54.390625 8.296875 
L 54.390625 0 
L 12.40625 0 
z
" id="DejaVuSans-49"/>
       <path d="M 31.78125 34.625 
Q 24.75 34.625 20.71875 30.859375 
Q 16.703125 27.09375 16.703125 20.515625 
Q 16.703125 13.921875 20.71875 10.15625 
Q 24.75 6.390625 31.78125 6.390625 
Q 38.8125 6.390625 42.859375 10.171875 
Q 46.921875 13.96875 46.921875 20.515625 
Q 46.921875 27.09375 42.890625 30.859375 
Q 38.875 34.625 31.78125 34.625 
z
M 21.921875 38.8125 
Q 15.578125 40.375 12.03125 44.71875 
Q 8.5 49.078125 8.5 55.328125 
Q 8.5 64.0625 14.71875 69.140625 
Q 20.953125 74.21875 31.78125 74.21875 
Q 42.671875 74.21875 48.875 69.140625 
Q 55.078125 64.0625 55.078125 55.328125 
Q 55.078125 49.078125 51.53125 44.71875 
Q 48 40.375 41.703125 38.8125 
Q 48.828125 37.15625 52.796875 32.3125 
Q 56.78125 27.484375 56.78125 20.515625 
Q 56.78125 9.90625 50.3125 4.234375 
Q 43.84375 -1.421875 31.78125 -1.421875 
Q 19.734375 -1.421875 13.25 4.234375 
Q 6.78125 9.90625 6.78125 20.515625 
Q 6.78125 27.484375 10.78125 32.3125 
Q 14.796875 37.15625 21.921875 38.8125 
z
M 18.3125 54.390625 
Q 18.3125 48.734375 21.84375 45.5625 
Q 25.390625 42.390625 31.78125 42.390625 
Q 38.140625 42.390625 41.71875 45.5625 
Q 45.3125 48.734375 45.3125 54.390625 
Q 45.3125 60.0625 41.71875 63.234375 
Q 38.140625 66.40625 31.78125 66.40625 
Q 25.390625 66.40625 21.84375 63.234375 
Q 18.3125 60.0625 18.3125 54.390625 
z
" id="DejaVuSans-56"/>
      </defs>
      <g transform="translate(31.228906 266.598437)scale(0.1 -0.1)">
       <use xlink:href="#DejaVuSans-68"/>
       <use x="77.001953" xlink:href="#DejaVuSans-80"/>
       <use x="137.304688" xlink:href="#DejaVuSans-48"/>
       <use x="200.927734" xlink:href="#DejaVuSans-49"/>
       <use x="264.550781" xlink:href="#DejaVuSans-49"/>
       <use x="328.173828" xlink:href="#DejaVuSans-48"/>
       <use x="391.796875" xlink:href="#DejaVuSans-56"/>
      </g>
     </g>
    </g>
    <g id="xtick_2">
     <g id="line2d_2">
      <g>
       <use style="stroke:#000000;stroke-width:0.8;" x="106.230889" xlink:href="#m792b081be6" y="252"/>
      </g>
     </g>
     <g id="text_2">
      <!-- DP01261 -->
      <defs>
       <path d="M 19.1875 8.296875 
L 53.609375 8.296875 
L 53.609375 0 
L 7.328125 0 
L 7.328125 8.296875 
Q 12.9375 14.109375 22.625 23.890625 
Q 32.328125 33.6875 34.8125 36.53125 
Q 39.546875 41.84375 41.421875 45.53125 
Q 43.3125 49.21875 43.3125 52.78125 
Q 43.3125 58.59375 39.234375 62.25 
Q 35.15625 65.921875 28.609375 65.921875 
Q 23.96875 65.921875 18.8125 64.3125 
Q 13.671875 62.703125 7.8125 59.421875 
L 7.8125 69.390625 
Q 13.765625 71.78125 18.9375 73 
Q 24.125 74.21875 28.421875 74.21875 
Q 39.75 74.21875 46.484375 68.546875 
Q 53.21875 62.890625 53.21875 53.421875 
Q 53.21875 48.921875 51.53125 44.890625 
Q 49.859375 40.875 45.40625 35.40625 
Q 44.1875 33.984375 37.640625 27.21875 
Q 31.109375 20.453125 19.1875 8.296875 
z
" id="DejaVuSans-50"/>
       <path d="M 33.015625 40.375 
Q 26.375 40.375 22.484375 35.828125 
Q 18.609375 31.296875 18.609375 23.390625 
Q 18.609375 15.53125 22.484375 10.953125 
Q 26.375 6.390625 33.015625 6.390625 
Q 39.65625 6.390625 43.53125 10.953125 
Q 47.40625 15.53125 47.40625 23.390625 
Q 47.40625 31.296875 43.53125 35.828125 
Q 39.65625 40.375 33.015625 40.375 
z
M 52.59375 71.296875 
L 52.59375 62.3125 
Q 48.875 64.0625 45.09375 64.984375 
Q 41.3125 65.921875 37.59375 65.921875 
Q 27.828125 65.921875 22.671875 59.328125 
Q 17.53125 52.734375 16.796875 39.40625 
Q 19.671875 43.65625 24.015625 45.921875 
Q 28.375 48.1875 33.59375 48.1875 
Q 44.578125 48.1875 50.953125 41.515625 
Q 57.328125 34.859375 57.328125 23.390625 
Q 57.328125 12.15625 50.6875 5.359375 
Q 44.046875 -1.421875 33.015625 -1.421875 
Q 20.359375 -1.421875 13.671875 8.265625 
Q 6.984375 17.96875 6.984375 36.375 
Q 6.984375 53.65625 15.1875 63.9375 
Q 23.390625 74.21875 37.203125 74.21875 
Q 40.921875 74.21875 44.703125 73.484375 
Q 48.484375 72.75 52.59375 71.296875 
z
" id="DejaVuSans-54"/>
      </defs>
      <g transform="translate(83.459795 266.598437)scale(0.1 -0.1)">
       <use xlink:href="#DejaVuSans-68"/>
       <use x="77.001953" xlink:href="#DejaVuSans-80"/>
       <use x="137.304688" xlink:href="#DejaVuSans-48"/>
       <use x="200.927734" xlink:href="#DejaVuSans-49"/>
       <use x="264.550781" xlink:href="#DejaVuSans-50"/>
       <use x="328.173828" xlink:href="#DejaVuSans-54"/>
       <use x="391.796875" xlink:href="#DejaVuSans-49"/>
      </g>
     </g>
    </g>
    <g id="xtick_3">
     <g id="line2d_3">
      <g>
       <use style="stroke:#000000;stroke-width:0.8;" x="158.461778" xlink:href="#m792b081be6" y="252"/>
      </g>
     </g>
     <g id="text_3">
      <!-- DP01442 -->
      <defs>
       <path d="M 37.796875 64.3125 
L 12.890625 25.390625 
L 37.796875 25.390625 
z
M 35.203125 72.90625 
L 47.609375 72.90625 
L 47.609375 25.390625 
L 58.015625 25.390625 
L 58.015625 17.1875 
L 47.609375 17.1875 
L 47.609375 0 
L 37.796875 0 
L 37.796875 17.1875 
L 4.890625 17.1875 
L 4.890625 26.703125 
z
" id="DejaVuSans-52"/>
      </defs>
      <g transform="translate(135.690685 266.598437)scale(0.1 -0.1)">
       <use xlink:href="#DejaVuSans-68"/>
       <use x="77.001953" xlink:href="#DejaVuSans-80"/>
       <use x="137.304688" xlink:href="#DejaVuSans-48"/>
       <use x="200.927734" xlink:href="#DejaVuSans-49"/>
       <use x="264.550781" xlink:href="#DejaVuSans-52"/>
       <use x="328.173828" xlink:href="#DejaVuSans-52"/>
       <use x="391.796875" xlink:href="#DejaVuSans-50"/>
      </g>
     </g>
    </g>
    <g id="xtick_4">
     <g id="line2d_4">
      <g>
       <use style="stroke:#000000;stroke-width:0.8;" x="210.692668" xlink:href="#m792b081be6" y="252"/>
      </g>
     </g>
     <g id="text_4">
      <!-- DP01564 -->
      <defs>
       <path d="M 10.796875 72.90625 
L 49.515625 72.90625 
L 49.515625 64.59375 
L 19.828125 64.59375 
L 19.828125 46.734375 
Q 21.96875 47.46875 24.109375 47.828125 
Q 26.265625 48.1875 28.421875 48.1875 
Q 40.625 48.1875 47.75 41.5 
Q 54.890625 34.8125 54.890625 23.390625 
Q 54.890625 11.625 47.5625 5.09375 
Q 40.234375 -1.421875 26.90625 -1.421875 
Q 22.3125 -1.421875 17.546875 -0.640625 
Q 12.796875 0.140625 7.71875 1.703125 
L 7.71875 11.625 
Q 12.109375 9.234375 16.796875 8.0625 
Q 21.484375 6.890625 26.703125 6.890625 
Q 35.15625 6.890625 40.078125 11.328125 
Q 45.015625 15.765625 45.015625 23.390625 
Q 45.015625 31 40.078125 35.4375 
Q 35.15625 39.890625 26.703125 39.890625 
Q 22.75 39.890625 18.8125 39.015625 
Q 14.890625 38.140625 10.796875 36.28125 
z
" id="DejaVuSans-53"/>
      </defs>
      <g transform="translate(187.921574 266.598437)scale(0.1 -0.1)">
       <use xlink:href="#DejaVuSans-68"/>
       <use x="77.001953" xlink:href="#DejaVuSans-80"/>
       <use x="137.304688" xlink:href="#DejaVuSans-48"/>
       <use x="200.927734" xlink:href="#DejaVuSans-49"/>
       <use x="264.550781" xlink:href="#DejaVuSans-53"/>
       <use x="328.173828" xlink:href="#DejaVuSans-54"/>
       <use x="391.796875" xlink:href="#DejaVuSans-52"/>
      </g>
     </g>
    </g>
    <g id="xtick_5">
     <g id="line2d_5">
      <g>
       <use style="stroke:#000000;stroke-width:0.8;" x="262.923557" xlink:href="#m792b081be6" y="252"/>
      </g>
     </g>
     <g id="text_5">
      <!-- DP01777 -->
      <defs>
       <path d="M 8.203125 72.90625 
L 55.078125 72.90625 
L 55.078125 68.703125 
L 28.609375 0 
L 18.3125 0 
L 43.21875 64.59375 
L 8.203125 64.59375 
z
" id="DejaVuSans-55"/>
      </defs>
      <g transform="translate(240.152463 266.598437)scale(0.1 -0.1)">
       <use xlink:href="#DejaVuSans-68"/>
       <use x="77.001953" xlink:href="#DejaVuSans-80"/>
       <use x="137.304688" xlink:href="#DejaVuSans-48"/>
       <use x="200.927734" xlink:href="#DejaVuSans-49"/>
       <use x="264.550781" xlink:href="#DejaVuSans-55"/>
       <use x="328.173828" xlink:href="#DejaVuSans-55"/>
       <use x="391.796875" xlink:href="#DejaVuSans-55"/>
      </g>
     </g>
    </g>
    <g id="xtick_6">
     <g id="line2d_6">
      <g>
       <use style="stroke:#000000;stroke-width:0.8;" x="315.154446" xlink:href="#m792b081be6" y="252"/>
      </g>
     </g>
     <g id="text_6">
      <!-- DP01978 -->
      <defs>
       <path d="M 10.984375 1.515625 
L 10.984375 10.5 
Q 14.703125 8.734375 18.5 7.8125 
Q 22.3125 6.890625 25.984375 6.890625 
Q 35.75 6.890625 40.890625 13.453125 
Q 46.046875 20.015625 46.78125 33.40625 
Q 43.953125 29.203125 39.59375 26.953125 
Q 35.25 24.703125 29.984375 24.703125 
Q 19.046875 24.703125 12.671875 31.3125 
Q 6.296875 37.9375 6.296875 49.421875 
Q 6.296875 60.640625 12.9375 67.421875 
Q 19.578125 74.21875 30.609375 74.21875 
Q 43.265625 74.21875 49.921875 64.515625 
Q 56.59375 54.828125 56.59375 36.375 
Q 56.59375 19.140625 48.40625 8.859375 
Q 40.234375 -1.421875 26.421875 -1.421875 
Q 22.703125 -1.421875 18.890625 -0.6875 
Q 15.09375 0.046875 10.984375 1.515625 
z
M 30.609375 32.421875 
Q 37.25 32.421875 41.125 36.953125 
Q 45.015625 41.5 45.015625 49.421875 
Q 45.015625 57.28125 41.125 61.84375 
Q 37.25 66.40625 30.609375 66.40625 
Q 23.96875 66.40625 20.09375 61.84375 
Q 16.21875 57.28125 16.21875 49.421875 
Q 16.21875 41.5 20.09375 36.953125 
Q 23.96875 32.421875 30.609375 32.421875 
z
" id="DejaVuSans-57"/>
      </defs>
      <g transform="translate(292.383352 266.598437)scale(0.1 -0.1)">
       <use xlink:href="#DejaVuSans-68"/>
       <use x="77.001953" xlink:href="#DejaVuSans-80"/>
       <use x="137.304688" xlink:href="#DejaVuSans-48"/>
       <use x="200.927734" xlink:href="#DejaVuSans-49"/>
       <use x="264.550781" xlink:href="#DejaVuSans-57"/>
       <use x="328.173828" xlink:href="#DejaVuSans-55"/>
       <use x="391.796875" xlink:href="#DejaVuSans-56"/>
      </g>
     </g>
    </g>
    <g id="xtick_7">
     <g id="line2d_7">
      <g>
       <use style="stroke:#000000;stroke-width:0.8;" x="367.385335" xlink:href="#m792b081be6" y="252"/>
      </g>
     </g>
     <g id="text_7">
      <!-- DP02234 -->
      <defs>
       <path d="M 40.578125 39.3125 
Q 47.65625 37.796875 51.625 33 
Q 55.609375 28.21875 55.609375 21.1875 
Q 55.609375 10.40625 48.1875 4.484375 
Q 40.765625 -1.421875 27.09375 -1.421875 
Q 22.515625 -1.421875 17.65625 -0.515625 
Q 12.796875 0.390625 7.625 2.203125 
L 7.625 11.71875 
Q 11.71875 9.328125 16.59375 8.109375 
Q 21.484375 6.890625 26.8125 6.890625 
Q 36.078125 6.890625 40.9375 10.546875 
Q 45.796875 14.203125 45.796875 21.1875 
Q 45.796875 27.640625 41.28125 31.265625 
Q 36.765625 34.90625 28.71875 34.90625 
L 20.21875 34.90625 
L 20.21875 43.015625 
L 29.109375 43.015625 
Q 36.375 43.015625 40.234375 45.921875 
Q 44.09375 48.828125 44.09375 54.296875 
Q 44.09375 59.90625 40.109375 62.90625 
Q 36.140625 65.921875 28.71875 65.921875 
Q 24.65625 65.921875 20.015625 65.03125 
Q 15.375 64.15625 9.8125 62.3125 
L 9.8125 71.09375 
Q 15.4375 72.65625 20.34375 73.4375 
Q 25.25 74.21875 29.59375 74.21875 
Q 40.828125 74.21875 47.359375 69.109375 
Q 53.90625 64.015625 53.90625 55.328125 
Q 53.90625 49.265625 50.4375 45.09375 
Q 46.96875 40.921875 40.578125 39.3125 
z
" id="DejaVuSans-51"/>
      </defs>
      <g transform="translate(344.614242 266.598437)scale(0.1 -0.1)">
       <use xlink:href="#DejaVuSans-68"/>
       <use x="77.001953" xlink:href="#DejaVuSans-80"/>
       <use x="137.304688" xlink:href="#DejaVuSans-48"/>
       <use x="200.927734" xlink:href="#DejaVuSans-50"/>
       <use x="264.550781" xlink:href="#DejaVuSans-50"/>
       <use x="328.173828" xlink:href="#DejaVuSans-51"/>
       <use x="391.796875" xlink:href="#DejaVuSans-52"/>
      </g>
     </g>
    </g>
   </g>
   <g id="matplotlib.axis_2">
    <g id="ytick_1">
     <g id="line2d_8">
      <defs>
       <path d="M 0 0 
L -3.5 0 
" id="mee20c2ea8a" style="stroke:#000000;stroke-width:0.8;"/>
      </defs>
      <g>
       <use style="stroke:#000000;stroke-width:0.8;" x="54" xlink:href="#mee20c2ea8a" y="243.710499"/>
      </g>
     </g>
     <g id="text_8">
      <!-- 0.0 -->
      <defs>
       <path d="M 10.6875 12.40625 
L 21 12.40625 
L 21 0 
L 10.6875 0 
z
" id="DejaVuSans-46"/>
      </defs>
      <g transform="translate(31.096875 247.509717)scale(0.1 -0.1)">
       <use xlink:href="#DejaVuSans-48"/>
       <use x="63.623047" xlink:href="#DejaVuSans-46"/>
       <use x="95.410156" xlink:href="#DejaVuSans-48"/>
      </g>
     </g>
    </g>
    <g id="ytick_2">
     <g id="line2d_9">
      <g>
       <use style="stroke:#000000;stroke-width:0.8;" x="54" xlink:href="#mee20c2ea8a" y="203.857126"/>
      </g>
     </g>
     <g id="text_9">
      <!-- 0.2 -->
      <g transform="translate(31.096875 207.656345)scale(0.1 -0.1)">
       <use xlink:href="#DejaVuSans-48"/>
       <use x="63.623047" xlink:href="#DejaVuSans-46"/>
       <use x="95.410156" xlink:href="#DejaVuSans-50"/>
      </g>
     </g>
    </g>
    <g id="ytick_3">
     <g id="line2d_10">
      <g>
       <use style="stroke:#000000;stroke-width:0.8;" x="54" xlink:href="#mee20c2ea8a" y="164.003754"/>
      </g>
     </g>
     <g id="text_10">
      <!-- 0.4 -->
      <g transform="translate(31.096875 167.802972)scale(0.1 -0.1)">
       <use xlink:href="#DejaVuSans-48"/>
       <use x="63.623047" xlink:href="#DejaVuSans-46"/>
       <use x="95.410156" xlink:href="#DejaVuSans-52"/>
      </g>
     </g>
    </g>
    <g id="ytick_4">
     <g id="line2d_11">
      <g>
       <use style="stroke:#000000;stroke-width:0.8;" x="54" xlink:href="#mee20c2ea8a" y="124.150381"/>
      </g>
     </g>
     <g id="text_11">
      <!-- 0.6 -->
      <g transform="translate(31.096875 127.9496)scale(0.1 -0.1)">
       <use xlink:href="#DejaVuSans-48"/>
       <use x="63.623047" xlink:href="#DejaVuSans-46"/>
       <use x="95.410156" xlink:href="#DejaVuSans-54"/>
      </g>
     </g>
    </g>
    <g id="ytick_5">
     <g id="line2d_12">
      <g>
       <use style="stroke:#000000;stroke-width:0.8;" x="54" xlink:href="#mee20c2ea8a" y="84.297009"/>
      </g>
     </g>
     <g id="text_12">
      <!-- 0.8 -->
      <g transform="translate(31.096875 88.096228)scale(0.1 -0.1)">
       <use xlink:href="#DejaVuSans-48"/>
       <use x="63.623047" xlink:href="#DejaVuSans-46"/>
       <use x="95.410156" xlink:href="#DejaVuSans-56"/>
      </g>
     </g>
    </g>
    <g id="ytick_6">
     <g id="line2d_13">
      <g>
       <use style="stroke:#000000;stroke-width:0.8;" x="54" xlink:href="#mee20c2ea8a" y="44.443636"/>
      </g>
     </g>
     <g id="text_13">
      <!-- 1.0 -->
      <g transform="translate(31.096875 48.242855)scale(0.1 -0.1)">
       <use xlink:href="#DejaVuSans-49"/>
       <use x="63.623047" xlink:href="#DejaVuSans-46"/>
       <use x="95.410156" xlink:href="#DejaVuSans-48"/>
      </g>
     </g>
    </g>
   </g>
   <g id="line2d_14">
    <path clip-path="url(#p18d49d116b)" d="M 54 171.974428 
L 54.522309 157.826481 
L 55.566927 222.787478 
L 56.089236 235.540557 
L 56.611544 196.484252 
L 57.133853 221.591877 
L 57.656162 238.52956 
L 58.178471 239.326628 
L 58.70078 201.06739 
L 59.223089 237.134692 
L 59.745398 236.935425 
L 60.267707 233.149355 
L 60.790016 231.754487 
L 61.312324 223.783812 
L 61.834633 235.34129 
L 62.356942 87.086745 
L 62.879251 128.334985 
L 63.40156 156.63088 
L 63.923869 240.322962 
L 64.446178 173.967097 
L 64.968487 236.138358 
L 65.490796 208.838798 
L 66.013105 227.171349 
L 66.535413 44.443636 
L 67.057722 183.731173 
L 67.580031 225.377947 
L 68.10234 44.443636 
L 68.624649 215.813138 
L 69.669267 76.326334 
L 70.191576 44.443636 
L 71.236193 44.443636 
L 71.758502 177.354633 
L 72.280811 147.863138 
L 72.80312 44.443636 
L 73.325429 212.624868 
L 73.847738 223.783812 
L 74.370047 189.509912 
L 74.892356 213.621202 
L 75.414665 128.733519 
L 75.936973 151.649208 
L 76.459282 183.531906 
L 76.981591 44.443636 
L 77.5039 188.314311 
L 78.026209 233.348622 
L 78.548518 216.012405 
L 79.070827 235.939091 
L 79.593136 216.610205 
L 80.115445 180.14437 
L 80.637754 231.953754 
L 81.160062 227.76915 
L 81.682371 199.871789 
L 82.20468 164.601554 
L 82.726989 216.809472 
L 83.249298 165.597889 
L 83.771607 71.942463 
L 84.293916 193.295982 
L 84.816225 183.332639 
L 85.338534 196.484252 
L 85.860842 198.875455 
L 86.383151 44.443636 
L 86.90546 221.990411 
L 87.427769 182.934106 
L 87.950078 230.758152 
L 88.472387 223.385279 
L 88.994696 233.348622 
L 89.517005 156.63088 
L 90.039314 229.761818 
L 90.561622 237.732493 
L 91.083931 92.068416 
L 91.60624 230.957419 
L 92.128549 239.326628 
L 92.650858 228.964751 
L 93.173167 133.914457 
L 93.695476 230.558886 
L 94.217785 234.942757 
L 94.740094 121.161378 
L 95.262402 215.215337 
L 95.784711 208.440264 
L 96.30702 221.791144 
L 96.829329 239.725161 
L 97.351638 44.443636 
L 97.873947 227.569883 
L 98.396256 124.548915 
L 98.918565 228.36695 
L 99.440874 221.990411 
L 99.963183 210.432933 
L 100.485491 207.842463 
L 101.0078 234.344956 
L 101.530109 104.223695 
L 102.052418 141.287331 
L 102.574727 228.964751 
L 103.097036 201.665191 
L 103.619345 232.551554 
L 104.141654 152.844809 
L 104.663963 218.602874 
L 105.186271 238.330293 
L 105.70858 218.20434 
L 106.230889 179.546569 
L 106.753198 109.205367 
L 107.275507 235.540557 
L 107.797816 240.522229 
L 108.320125 228.765484 
L 108.842434 239.525894 
L 109.364743 240.123695 
L 109.887051 235.739824 
L 110.40936 233.348622 
L 110.931669 150.852141 
L 111.453978 225.975748 
L 111.976287 229.363284 
L 112.498596 223.584545 
L 113.020905 68.754194 
L 113.543214 196.085718 
L 114.065523 167.789824 
L 114.587832 131.921789 
L 115.632449 223.783812 
L 116.154758 158.623548 
L 116.677067 210.831466 
L 117.199376 44.443636 
L 117.721685 44.443636 
L 118.243994 105.618563 
L 118.766303 44.443636 
L 119.288612 44.443636 
L 119.81092 139.693196 
L 120.855538 239.326628 
L 121.377847 216.012405 
L 121.900156 228.167683 
L 122.422465 88.880147 
L 122.944774 237.333959 
L 123.467083 198.277654 
L 123.989392 221.990411 
L 124.5117 210.034399 
L 125.034009 221.39261 
L 125.556318 225.17868 
L 126.078627 160.616217 
L 126.600936 222.986745 
L 127.123245 233.547889 
L 127.645554 177.952434 
L 128.167863 182.535572 
L 128.690172 234.74349 
L 129.21248 242.116364 
L 129.734789 223.983079 
L 130.257098 222.986745 
L 130.779407 206.846129 
L 131.301716 241.319296 
L 131.824025 223.783812 
L 132.346334 224.979413 
L 132.868643 152.047742 
L 133.390952 224.780147 
L 133.913261 235.540557 
L 134.435569 184.926774 
L 134.957878 230.558886 
L 135.480187 201.465924 
L 136.002496 218.005073 
L 136.524805 208.440264 
L 137.047114 230.359619 
L 137.569423 238.52956 
L 138.091732 220.994076 
L 138.614041 141.885132 
L 139.658658 237.732493 
L 140.180967 234.942757 
L 140.703276 192.498915 
L 141.225585 203.060059 
L 141.747894 134.512258 
L 142.270203 198.676188 
L 142.792512 231.355953 
L 143.314821 210.432933 
L 143.837129 181.937771 
L 144.359438 226.374282 
L 144.881747 200.668856 
L 145.404056 166.992757 
L 145.926365 220.595543 
L 146.448674 223.385279 
L 146.970983 218.802141 
L 147.493292 217.407273 
L 148.015601 240.721496 
L 148.53791 211.030733 
L 149.060218 188.513578 
L 149.582527 44.443636 
L 150.104836 184.52824 
L 150.627145 197.28132 
L 151.149454 200.071056 
L 151.671763 228.36695 
L 152.194072 197.480587 
L 152.716381 44.443636 
L 153.23869 46.237038 
L 153.760998 234.942757 
L 154.283307 215.613871 
L 154.805616 44.443636 
L 155.327925 230.160352 
L 155.850234 199.473255 
L 156.894852 236.536891 
L 157.417161 168.985425 
L 157.93947 224.182346 
L 158.461778 44.443636 
L 158.984087 210.632199 
L 159.506396 162.011085 
L 160.028705 237.93176 
L 160.551014 217.805806 
L 161.073323 55.204047 
L 161.595632 227.569883 
L 162.117941 86.289677 
L 162.64025 236.337625 
L 163.162559 203.259326 
L 163.684867 103.028094 
L 164.207176 136.704194 
L 164.729485 151.250674 
L 165.251794 148.261672 
L 165.774103 231.953754 
L 166.296412 170.380293 
L 166.818721 236.138358 
L 167.34103 235.34129 
L 167.863339 197.480587 
L 168.385647 240.920762 
L 168.907956 191.901114 
L 169.430265 211.030733 
L 169.952574 235.34129 
L 170.474883 44.443636 
L 170.997192 223.783812 
L 171.519501 73.536598 
L 172.04181 107.411965 
L 172.564119 191.701848 
L 173.086427 191.303314 
L 173.608736 185.923109 
L 174.131045 210.233666 
L 174.653354 205.451261 
L 175.175663 203.857126 
L 175.697972 193.096716 
L 176.220281 192.897449 
L 176.74259 201.06739 
L 177.264899 232.750821 
L 177.787207 189.908446 
L 178.309516 201.06739 
L 178.831825 169.383959 
L 179.876443 205.052727 
L 180.398752 235.34129 
L 180.921061 213.621202 
L 181.44337 203.857126 
L 181.965679 239.725161 
L 182.487988 200.270323 
L 183.010296 204.056393 
L 183.532605 200.469589 
L 184.054914 143.28 
L 184.577223 174.36563 
L 185.099532 193.694516 
L 185.621841 193.495249 
L 186.14415 86.090411 
L 186.666459 192.897449 
L 187.188768 193.694516 
L 187.711076 218.602874 
L 188.233385 230.160352 
L 188.755694 237.533226 
L 189.278003 229.363284 
L 189.800312 198.875455 
L 190.322621 161.811818 
L 190.84493 44.443636 
L 191.367239 228.964751 
L 191.889548 213.621202 
L 192.411856 193.295982 
L 192.934165 44.443636 
L 193.456474 207.643196 
L 193.978783 202.063724 
L 194.501092 187.317977 
L 195.023401 237.333959 
L 195.54571 190.107713 
L 196.068019 219.798475 
L 196.590328 167.989091 
L 197.112637 214.617537 
L 197.634945 198.875455 
L 198.157254 214.41827 
L 198.679563 171.575894 
L 199.201872 117.574575 
L 199.724181 241.518563 
L 200.24649 223.584545 
L 200.768799 236.337625 
L 201.291108 225.975748 
L 201.813417 185.723842 
L 202.335725 134.711525 
L 202.858034 133.914457 
L 203.380343 157.627214 
L 203.902652 240.920762 
L 204.424961 211.23 
L 204.94727 153.044076 
L 205.469579 204.25566 
L 205.991888 212.425601 
L 206.514197 169.583226 
L 207.036505 67.160059 
L 207.558814 59.587918 
L 208.081123 44.443636 
L 208.603432 228.36695 
L 209.125741 181.339971 
L 209.64805 222.388944 
L 210.170359 213.023402 
L 210.692668 228.964751 
L 211.214977 195.089384 
L 211.737285 215.813138 
L 212.259594 190.90478 
L 213.304212 232.153021 
L 213.826521 199.074721 
L 214.34883 216.211672 
L 214.871139 192.698182 
L 215.393448 216.211672 
L 215.915757 229.562551 
L 216.438066 187.915777 
L 216.960374 237.333959 
L 217.482683 210.233666 
L 218.004992 195.288651 
L 218.527301 161.214018 
L 219.04961 218.802141 
L 219.571919 230.957419 
L 220.094228 228.36695 
L 220.616537 124.947449 
L 221.138846 144.077067 
L 222.183463 228.964751 
L 222.705772 223.983079 
L 223.228081 190.506246 
L 223.75039 224.780147 
L 224.272699 230.160352 
L 225.317317 219.997742 
L 225.839626 234.942757 
L 226.361934 173.967097 
L 226.884243 178.550235 
L 227.406552 175.760499 
L 227.928861 231.754487 
L 228.45117 236.337625 
L 229.495788 197.480587 
L 230.018097 228.167683 
L 230.540406 231.156686 
L 231.062715 237.732493 
L 231.585023 207.244663 
L 232.107332 194.890117 
L 232.629641 220.197009 
L 233.674259 145.073402 
L 234.196568 241.120029 
L 234.718877 189.908446 
L 235.241186 189.709179 
L 235.763495 172.970762 
L 236.285803 228.566217 
L 236.808112 237.533226 
L 237.330421 234.942757 
L 237.85273 228.36695 
L 238.375039 216.610205 
L 238.897348 188.314311 
L 239.419657 225.577214 
L 239.941966 224.182346 
L 240.464275 182.137038 
L 240.986583 226.573548 
L 242.031201 201.864457 
L 242.55351 194.69085 
L 243.075819 197.082053 
L 244.120437 238.928094 
L 244.642746 231.754487 
L 245.165055 236.337625 
L 245.687363 223.783812 
L 246.209672 44.443636 
L 246.731981 242.116364 
L 247.25429 241.319296 
L 247.776599 236.138358 
L 248.298908 219.001408 
L 248.821217 229.761818 
L 249.343526 223.584545 
L 249.865835 229.961085 
L 250.388144 223.983079 
L 250.910452 238.928094 
L 251.432761 186.520909 
L 251.95507 193.893783 
L 252.477379 234.145689 
L 252.999688 206.248328 
L 253.521997 195.487918 
L 254.044306 149.457273 
L 254.566615 239.924428 
L 255.088924 238.928094 
L 255.611232 192.100381 
L 256.133541 226.972082 
L 256.65585 198.078387 
L 257.178159 236.337625 
L 257.700468 173.967097 
L 258.222777 231.754487 
L 258.745086 205.650528 
L 259.267395 225.17868 
L 259.789704 224.780147 
L 260.312012 204.85346 
L 260.834321 235.739824 
L 261.35663 217.60654 
L 261.878939 154.040411 
L 262.401248 44.443636 
L 262.923557 57.196716 
L 263.445866 206.447595 
L 263.968175 142.283666 
L 264.490484 103.625894 
L 265.012793 152.247009 
L 265.535101 236.536891 
L 266.05741 219.001408 
L 266.579719 166.992757 
L 267.102028 44.443636 
L 267.624337 44.443636 
L 268.146646 228.765484 
L 268.668955 44.443636 
L 269.191264 168.985425 
L 269.713573 208.639531 
L 270.235881 183.133372 
L 270.75819 233.149355 
L 271.280499 149.65654 
L 271.802808 109.0061 
L 272.325117 195.288651 
L 272.847426 229.761818 
L 273.369735 220.396276 
L 273.892044 198.078387 
L 274.414353 220.396276 
L 274.936661 85.094076 
L 275.45897 44.443636 
L 275.981279 234.544223 
L 276.503588 183.332639 
L 277.025897 232.750821 
L 277.548206 240.721496 
L 278.070515 171.775161 
L 278.592824 191.901114 
L 279.115133 233.946422 
L 279.637441 230.558886 
L 280.15975 219.599208 
L 280.682059 237.93176 
L 281.204368 238.52956 
L 281.726677 234.544223 
L 282.248986 209.038065 
L 282.771295 242.116364 
L 283.293604 185.723842 
L 283.815913 170.181026 
L 284.338222 232.352287 
L 284.86053 44.443636 
L 285.905148 44.443636 
L 286.427457 214.617537 
L 286.949766 173.170029 
L 287.472075 231.953754 
L 287.994384 229.363284 
L 288.516693 87.086745 
L 289.039002 194.69085 
L 289.56131 211.23 
L 290.083619 198.875455 
L 290.605928 214.617537 
L 291.128237 44.443636 
L 291.650546 239.924428 
L 292.172855 239.127361 
L 292.695164 216.809472 
L 293.217473 215.613871 
L 293.739782 220.595543 
L 294.26209 192.498915 
L 294.784399 228.167683 
L 295.306708 239.525894 
L 295.829017 174.36563 
L 296.351326 241.71783 
L 296.873635 242.116364 
L 297.918253 237.134692 
L 298.440562 199.473255 
L 298.962871 238.928094 
L 299.485179 80.909472 
L 300.007488 235.540557 
L 300.529797 227.370616 
L 301.052106 199.273988 
L 301.574415 224.182346 
L 302.096724 229.961085 
L 302.619033 219.997742 
L 303.141342 229.363284 
L 303.663651 227.370616 
L 304.185959 44.443636 
L 304.708268 124.947449 
L 305.230577 183.332639 
L 305.752886 44.443636 
L 306.275195 44.443636 
L 306.797504 214.41827 
L 307.319813 191.701848 
L 307.842122 235.142023 
L 308.364431 188.513578 
L 308.886739 222.986745 
L 309.409048 198.676188 
L 310.453666 239.725161 
L 310.975975 232.153021 
L 311.498284 230.957419 
L 312.542902 44.443636 
L 313.58752 44.443636 
L 314.109828 206.646862 
L 314.632137 194.292317 
L 315.154446 235.540557 
L 315.676755 230.160352 
L 316.199064 235.739824 
L 316.721373 194.890117 
L 317.243682 234.145689 
L 317.765991 225.17868 
L 318.2883 225.776481 
L 318.810608 181.738504 
L 319.332917 236.935425 
L 319.855226 221.193343 
L 320.377535 223.783812 
L 320.899844 223.783812 
L 321.422153 178.550235 
L 321.944462 229.164018 
L 322.466771 194.69085 
L 322.98908 208.639531 
L 323.511388 193.694516 
L 324.033697 44.443636 
L 324.556006 184.926774 
L 325.078315 216.610205 
L 325.600624 211.827801 
L 326.645242 74.333666 
L 327.167551 217.60654 
L 327.68986 235.540557 
L 328.212168 207.045396 
L 328.734477 226.374282 
L 329.256786 229.164018 
L 329.779095 197.28132 
L 330.301404 199.074721 
L 330.823713 172.771496 
L 331.346022 183.332639 
L 331.868331 225.577214 
L 332.39064 199.672522 
L 332.912949 213.621202 
L 333.435257 44.443636 
L 333.957566 166.195689 
L 334.479875 192.698182 
L 335.002184 233.547889 
L 335.524493 197.28132 
L 336.046802 227.76915 
L 336.569111 44.443636 
L 337.09142 196.484252 
L 337.613729 177.354633 
L 338.136037 185.524575 
L 338.658346 240.123695 
L 339.180655 221.591877 
L 339.702964 225.577214 
L 340.225273 231.55522 
L 340.747582 59.986452 
L 341.269891 235.540557 
L 341.7922 229.363284 
L 342.314509 227.370616 
L 342.836817 231.156686 
L 343.359126 236.138358 
L 343.881435 219.001408 
L 344.403744 216.610205 
L 344.926053 235.142023 
L 345.448362 239.525894 
L 345.970671 169.782493 
L 346.49298 172.372962 
L 347.015289 240.721496 
L 347.537598 95.057419 
L 348.059906 241.71783 
L 348.582215 227.370616 
L 349.104524 235.142023 
L 349.626833 221.990411 
L 350.149142 229.961085 
L 350.671451 241.518563 
L 351.19376 224.979413 
L 351.716069 239.326628 
L 352.238378 234.145689 
L 352.760686 178.151701 
L 353.282995 203.060059 
L 353.805304 201.266657 
L 354.327613 235.142023 
L 354.849922 44.443636 
L 355.372231 238.330293 
L 355.89454 231.754487 
L 356.416849 237.732493 
L 356.939158 221.591877 
L 357.461466 225.17868 
L 357.983775 202.462258 
L 358.506084 193.495249 
L 359.028393 222.388944 
L 359.550702 210.233666 
L 360.073011 230.758152 
L 360.59532 168.387625 
L 361.117629 207.244663 
L 361.639938 44.443636 
L 362.684555 168.985425 
L 363.206864 206.248328 
L 363.729173 232.950088 
L 364.251482 204.654194 
L 364.773791 222.787478 
L 365.2961 227.569883 
L 365.818409 235.939091 
L 366.340718 239.326628 
L 366.863027 199.871789 
L 367.385335 230.558886 
L 367.907644 239.127361 
L 368.429953 239.525894 
L 368.952262 229.562551 
L 369.474571 221.791144 
L 369.99688 235.540557 
L 370.519189 229.164018 
L 371.041498 168.188358 
L 372.086115 236.138358 
L 372.608424 238.928094 
L 373.130733 198.277654 
L 373.653042 44.443636 
L 374.175351 223.186012 
L 374.69766 164.402287 
L 375.219969 236.536891 
L 375.742278 211.628534 
L 376.264587 227.171349 
L 376.786895 208.240997 
L 377.309204 239.924428 
L 377.831513 156.830147 
L 378.353822 44.443636 
L 378.876131 228.167683 
L 379.39844 211.827801 
L 379.920749 239.725161 
L 380.443058 152.247009 
L 380.965367 162.808152 
L 381.487676 167.590557 
L 382.009984 177.952434 
L 382.532293 194.292317 
L 383.054602 200.868123 
L 383.576911 240.322962 
L 384.09922 209.038065 
L 384.621529 232.352287 
L 385.143838 153.641877 
L 385.666147 232.551554 
L 386.188456 238.131026 
L 386.710764 239.725161 
L 387.233073 239.127361 
L 387.755382 181.339971 
L 388.277691 220.595543 
L 388.8 234.544223 
L 388.8 234.544223 
" style="fill:none;stroke:#1f77b4;stroke-linecap:square;stroke-width:1.5;"/>
   </g>
   <g id="patch_3">
    <path d="M 54 252 
L 54 34.56 
" style="fill:none;stroke:#000000;stroke-linecap:square;stroke-linejoin:miter;stroke-width:0.8;"/>
   </g>
   <g id="patch_4">
    <path d="M 388.8 252 
L 388.8 34.56 
" style="fill:none;stroke:#000000;stroke-linecap:square;stroke-linejoin:miter;stroke-width:0.8;"/>
   </g>
   <g id="patch_5">
    <path d="M 54 252 
L 388.8 252 
" style="fill:none;stroke:#000000;stroke-linecap:square;stroke-linejoin:miter;stroke-width:0.8;"/>
   </g>
   <g id="patch_6">
    <path d="M 54 34.56 
L 388.8 34.56 
" style="fill:none;stroke:#000000;stroke-linecap:square;stroke-linejoin:miter;stroke-width:0.8;"/>
   </g>
  </g>
 </g>
 <defs>
  <clipPath id="p18d49d116b">
   <rect height="217.44" width="334.8" x="54" y="34.56"/>
  </clipPath>
 </defs>
</svg>
